REM DIRINDEX 1\2\5,1\2\6,1\2\7,1\2\8,1\3\9,1\3\10,1\3\11,1\4\12,1\4\13,1\4\14,1\4\15,1\4\16
REM DIRNAME cjc034,folder01,folder02,folder03,folder04,folder05,folder06,folder07,folder08,folder09,folder10,folder11,folder12,folder13,folder14,folder15
TITLE ""
FILE "1200_2_sec02_0462_0476.mp3" MP3
  TRACK 01 AUDIO
    TITLE "0:"
    INDEX 01 00:00:00
  TRACK 02 AUDIO
    TITLE "10:cjc034_00945"
    INDEX 01 00:00:15
  TRACK 03 AUDIO
    TITLE "0:"
    INDEX 01 00:01:42
  TRACK 04 AUDIO
    TITLE "9:cjc034_00946"
    INDEX 01 00:01:44
  TRACK 05 AUDIO
    TITLE "0:"
    INDEX 01 00:02:53
  TRACK 06 AUDIO
    TITLE "10:cjc034_00947"
    INDEX 01 00:03:35
  TRACK 07 AUDIO
    TITLE "0:"
    INDEX 01 00:05:12
  TRACK 08 AUDIO
    TITLE "9:cjc034_00948"
    INDEX 01 00:05:18
  TRACK 09 AUDIO
    TITLE "0:"
    INDEX 01 00:06:47
  TRACK 10 AUDIO
    TITLE "10:cjc034_00949"
    INDEX 01 00:07:29
  TRACK 11 AUDIO
    TITLE "0:"
    INDEX 01 00:08:54
  TRACK 12 AUDIO
    TITLE "9:cjc034_00950"
    INDEX 01 00:08:60
  TRACK 13 AUDIO
    TITLE "0:"
    INDEX 01 00:09:69
  TRACK 14 AUDIO
    TITLE "10:cjc034_00951"
    INDEX 01 00:10:49
  TRACK 15 AUDIO
    TITLE "0:"
    INDEX 01 00:13:02
  TRACK 16 AUDIO
    TITLE "9:cjc034_00952"
    INDEX 01 00:13:12
  TRACK 17 AUDIO
    TITLE "0:"
    INDEX 01 00:14:04
  TRACK 18 AUDIO
    TITLE "10:cjc034_00953"
    INDEX 01 00:14:62
  TRACK 19 AUDIO
    TITLE "0:"
    INDEX 01 00:16:00
  TRACK 20 AUDIO
    TITLE "9:cjc034_00954"
    INDEX 01 00:16:14
  TRACK 21 AUDIO
    TITLE "0:"
    INDEX 01 00:17:14
  TRACK 22 AUDIO
    TITLE "11:cjc034_00955"
    INDEX 01 00:18:68
  TRACK 23 AUDIO
    TITLE "0:"
    INDEX 01 00:20:45
  TRACK 24 AUDIO
    TITLE "10:cjc034_00956"
    INDEX 01 00:21:45
  TRACK 25 AUDIO
    TITLE "0:"
    INDEX 01 00:22:44
  TRACK 26 AUDIO
    TITLE "9:cjc034_00957"
    INDEX 01 00:22:48
  TRACK 27 AUDIO
    TITLE "0:"
    INDEX 01 00:24:04
  TRACK 28 AUDIO
    TITLE "10:cjc034_00958"
    INDEX 01 00:24:51
  TRACK 29 AUDIO
    TITLE "0:"
    INDEX 01 00:27:28
  TRACK 30 AUDIO
    TITLE "9:cjc034_00959"
    INDEX 01 00:27:30
  TRACK 31 AUDIO
    TITLE "0:"
    INDEX 01 00:28:31
  TRACK 32 AUDIO
    TITLE "10:cjc034_00960"
    INDEX 01 00:29:13
  TRACK 33 AUDIO
    TITLE "0:"
    INDEX 01 00:31:12
  TRACK 34 AUDIO
    TITLE "9:cjc034_00961"
    INDEX 01 00:31:16
  TRACK 35 AUDIO
    TITLE "0:"
    INDEX 01 00:32:13
  TRACK 36 AUDIO
    TITLE "10:cjc034_00962"
    INDEX 01 00:32:70
  TRACK 37 AUDIO
    TITLE "0:"
    INDEX 01 00:35:59
  TRACK 38 AUDIO
    TITLE "9:cjc034_00963"
    INDEX 01 00:35:68
  TRACK 39 AUDIO
    TITLE "0:"
    INDEX 01 00:36:66
  TRACK 40 AUDIO
    TITLE "10:cjc034_00964"
    INDEX 01 00:37:50
  TRACK 41 AUDIO
    TITLE "0:"
    INDEX 01 00:38:65
  TRACK 42 AUDIO
    TITLE "9:cjc034_00965"
    INDEX 01 00:38:71
  TRACK 43 AUDIO
    TITLE "0:"
    INDEX 01 00:40:13
  TRACK 44 AUDIO
    TITLE "10:cjc034_00966"
    INDEX 01 00:40:72
  TRACK 45 AUDIO
    TITLE "0:"
    INDEX 01 00:41:73
  TRACK 46 AUDIO
    TITLE "9:cjc034_00967"
    INDEX 01 00:42:00
  TRACK 47 AUDIO
    TITLE "0:"
    INDEX 01 00:42:74
  TRACK 48 AUDIO
    TITLE "10:cjc034_00968"
    INDEX 01 00:43:58
  TRACK 49 AUDIO
    TITLE "0:"
    INDEX 01 00:44:63
  TRACK 50 AUDIO
    TITLE "9:cjc034_00969"
    INDEX 01 00:44:67
  TRACK 51 AUDIO
    TITLE "0:"
    INDEX 01 00:45:71
  TRACK 52 AUDIO
    TITLE "10:cjc034_00970"
    INDEX 01 00:46:54
  TRACK 53 AUDIO
    TITLE "0:"
    INDEX 01 00:49:27
  TRACK 54 AUDIO
    TITLE "9:cjc034_00971"
    INDEX 01 00:49:33
  TRACK 55 AUDIO
    TITLE "0:"
    INDEX 01 00:50:54
  TRACK 56 AUDIO
    TITLE "10:cjc034_00972"
    INDEX 01 00:51:34
  TRACK 57 AUDIO
    TITLE "0:"
    INDEX 01 00:52:65
  TRACK 58 AUDIO
    TITLE "9:cjc034_00973"
    INDEX 01 00:52:69
  TRACK 59 AUDIO
    TITLE "0:"
    INDEX 01 00:54:09
  TRACK 60 AUDIO
    TITLE "10:cjc034_00974"
    INDEX 01 00:54:68
  TRACK 61 AUDIO
    TITLE "0:"
    INDEX 01 00:56:00
  TRACK 62 AUDIO
    TITLE "9:cjc034_00975"
    INDEX 01 00:56:06
  TRACK 63 AUDIO
    TITLE "0:"
    INDEX 01 00:57:33
